<svg width="42" height="42" viewBox="0 0 42 42" fill="none" xmlns="http://www.w3.org/2000/svg">
<path fill-rule="evenodd" clip-rule="evenodd" d="M27 10.5C27 12.0913 26.3679 13.6174 25.2426 14.7426C24.1174 15.8679 22.5913 16.5 21 16.5C19.4087 16.5 17.8826 15.8679 16.7574 14.7426C15.6321 13.6174 15 12.0913 15 10.5C15 8.9087 15.6321 7.38258 16.7574 6.25736C17.8826 5.13214 19.4087 4.5 21 4.5C22.5913 4.5 24.1174 5.13214 25.2426 6.25736C26.3679 7.38258 27 8.9087 27 10.5ZM31.5 10.5C31.5 13.2848 30.3938 15.9555 28.4246 17.9246C26.4555 19.8938 23.7848 21 21 21C18.2152 21 15.5445 19.8938 13.5754 17.9246C11.6062 15.9555 10.5 13.2848 10.5 10.5C10.5 7.71523 11.6062 5.04451 13.5754 3.07538C15.5445 1.10625 18.2152 0 21 0C23.7848 0 26.4555 1.10625 28.4246 3.07538C30.3938 5.04451 31.5 7.71523 31.5 10.5ZM4.5 34.5C4.5 33.888 5.16 32.073 8.46 30.123C11.514 28.32 15.96 27 21 27C26.04 27 30.486 28.32 33.54 30.123C36.84 32.073 37.5 33.888 37.5 34.5C37.5 35.2957 37.1839 36.0587 36.6213 36.6213C36.0587 37.1839 35.2957 37.5 34.5 37.5H7.5C6.70435 37.5 5.94129 37.1839 5.37868 36.6213C4.81607 36.0587 4.5 35.2957 4.5 34.5ZM21 22.5C9.45 22.5 0 28.5 0 34.5C0 36.4891 0.790176 38.3968 2.1967 39.8033C3.60322 41.2098 5.51088 42 7.5 42H34.5C36.4891 42 38.3968 41.2098 39.8033 39.8033C41.2098 38.3968 42 36.4891 42 34.5C42 28.5 32.55 22.5 21 22.5Z" fill="#97AFE3"/>
</svg>
