<svg width="46" height="46" viewBox="0 0 46 46" fill="none" xmlns="http://www.w3.org/2000/svg">
<path d="M2 23C2 13.1013 2 8.14968 5.07484 5.07484C8.14968 2 13.0991 2 23 2C32.8987 2 37.8503 2 40.9252 5.07484C44 8.14968 44 13.0991 44 23C44 32.8987 44 37.8503 40.9252 40.9252C37.8503 44 32.9009 44 23 44C13.1013 44 8.14968 44 5.07484 40.9252C2 37.8503 2 32.9009 2 23Z" stroke="#97AFE3" stroke-width="4" stroke-linecap="round" stroke-linejoin="round"/>
<path d="M31.8422 23H14.158M31.8422 23C31.8422 21.4526 27.4344 18.5613 26.3159 17.4737M31.8422 23C31.8422 24.5474 27.4344 27.4387 26.3159 28.5263" stroke="#97AFE3" stroke-width="4" stroke-linecap="round" stroke-linejoin="round"/>
</svg>
